HIERARCHY
ROOT Hips
{
  OFFSET -7.40107 92.6463 -109.962
  CHANNELS 6 Xposition Yposition Zposition Zrotation Xrotation Yrotation
  JOINT ToSpine
  {
    OFFSET -2.69724 7.43032 -0.144315
    CHANNELS 3 Zrotation Xrotation Yrotation
    JOINT Spine
    {
      OFFSET -0.0310711 10.7595 1.96963
      CHANNELS 3 Zrotation Xrotation Yrotation
      JOINT Spine1
      {
        OFFSET 13.1342 3.43533 0.764692
        CHANNELS 3 Zrotation Xrotation Yrotation
        JOINT Neck
        {
          OFFSET 29.8703 7.82586 -0.130764
          CHANNELS 3 Zrotation Xrotation Yrotation
          JOINT Head
          {
            OFFSET 9.52751 0.295786 -0.907742
            CHANNELS 3 Zrotation Xrotation Yrotation
            End Site
            {
              OFFSET 16.4037 0.713936 2.7358
            }
          }
        }
        JOINT LeftShoulder
        {
          OFFSET 27.5574 4.95586 2.47156
          CHANNELS 3 Zrotation Xrotation Yrotation
          JOINT LeftArm
          {
            OFFSET 1.20734 -0.998971 20.1238
            CHANNELS 3 Zrotation Xrotation Yrotation
            JOINT LeftForeArm
            {
              OFFSET 26.8049 -0.0536703 -0.155908
              CHANNELS 3 Zrotation Xrotation Yrotation
              JOINT LeftHand
              {
                OFFSET 26.6817 0 0.320147
                CHANNELS 3 Zrotation Xrotation Yrotation
                End Site
                {
                  OFFSET 18.6119 0 0.382219
                }
              }
            }
          }
        }
        JOINT RightShoulder
        {
          OFFSET 27.5927 4.71444 -2.65209
          CHANNELS 3 Zrotation Xrotation Yrotation
          JOINT RightArm
          {
            OFFSET 2.83739 -1.17114 -18.7564
            CHANNELS 3 Zrotation Xrotation Yrotation
            JOINT RightForeArm
            {
              OFFSET 28.839 -0.0548439 1.22491
              CHANNELS 3 Zrotation Xrotation Yrotation
              JOINT RightHand
              {
                OFFSET 26.5114 0 -0.101894
                CHANNELS 3 Zrotation Xrotation Yrotation
                End Site
                {
                  OFFSET 18.2168 0 0
                }
              }
            }
          }
        }
      }
    }
  }
  JOINT LeftUpLeg
  {
    OFFSET -4.76168 -1.9167 -10.2353
    CHANNELS 3 Zrotation Xrotation Yrotation
    JOINT LeftLeg
    {
      OFFSET 2.55951 -42.0585 -8.02213
      CHANNELS 3 Zrotation Xrotation Yrotation
      JOINT LeftFoot
      {
        OFFSET 3.16357 -42.5282 -3.95426
        CHANNELS 3 Zrotation Xrotation Yrotation
        JOINT LeftToeBase
        {
          OFFSET 0.346054 -6.02161 12.8035
          CHANNELS 3 Zrotation Xrotation Yrotation
          End Site
          {
            OFFSET 0.134235 -1.35082 5.13018
          }
        }
      }
    }
  }
  JOINT RightUpLeg
  {
    OFFSET -4.94151 -1.41743 10.6446
    CHANNELS 3 Zrotation Xrotation Yrotation
    JOINT RightLeg
    {
      OFFSET -2.56294 -42.0364 -7.94377
      CHANNELS 3 Zrotation Xrotation Yrotation
      JOINT RightFoot
      {
        OFFSET -3.0952 -42.555 -4.02241
        CHANNELS 3 Zrotation Xrotation Yrotation
        JOINT RightToeBase
        {
          OFFSET -0.0828122 -6.13587 12.8035
          CHANNELS 3 Zrotation Xrotation Yrotation
          End Site
          {
            OFFSET -0.131328 -1.35082 5.13018
          }
        }
      }
    }
  }
}
MOTION
Frames:	11
Frame Time:	0.0333333
-8.23074 93.0247 -56.6223 61.5224 -33.5903 -19.6521 -70.1915 0 88.8779 96.316 70.2819 -9.63023 1.43428 17.9125 8.13804 -118.416 39.1078 148.02 171.696 84.5936 -120.397 0.796048 1.05215 -5.84944 -140.135 3.09544 -64.7133 -69.8774 -36.2638 -77.0073 0.420957 0.000574898 0.358661 0.16502 1.17557 15.3654 -153.581 21.3227 71.1352 -58.7717 27.3161 74.1677 0.58676 0.000330503 0.0646655 -50.4951 11.9497 103.05 -1.7415 38.0772 -0.537899 -2.85719 -9.478 -0.708077 6.33396 -14.8588 16.3804 -30.056 -8.6378 83.6039 2.16663 46.4713 -1.09108 -7.67778 -10.9544 1.26359 0.935916 -5.57951 -2.40857 
-8.23485 93.0474 -56.4803 61.6782 -33.3057 -19.5773 -70.1915 0 88.8779 95.5468 70.2569 -8.89526 1.78043 17.8581 8.11948 -118.535 39.0741 147.849 173.263 84.6765 -122.003 0.826667 1.04134 -6.15908 -140.604 3.30046 -65.1431 -69.3035 -35.9714 -76.7244 0.420957 0.000574898 0.358661 0.157122 1.26044 15.6048 -153.928 21.3147 71.4731 -58.0651 27.1639 73.8287 0.58676 0.000330503 0.0646655 -50.786 11.8335 102.98 -1.74475 37.5911 -0.85624 -3.11217 -9.51467 -0.699976 6.30482 -14.813 16.2662 -30.0518 -8.66004 83.7672 2.1697 46.7322 -1.25738 -7.36862 -11.1137 1.25468 0.980949 -5.45492 -2.86901 
-8.29332 92.9887 -56.3618 61.8467 -33.1803 -19.5747 -70.1915 0 88.8779 96.0687 70.2243 -9.61326 1.44018 17.8285 8.19089 -118.3 38.8278 147.527 175.64 84.6934 -124.253 0.784514 1.13369 -5.75092 -140.195 3.8083 -65.0518 -69.4597 -35.5022 -76.9621 0.420957 0.000574898 0.358661 0.156747 1.17528 15.9137 -153.892 21.1292 71.6232 -57.9749 26.9229 73.9004 0.58676 0.000330503 0.0646655 -51.0278 11.653 102.808 -1.80796 37.2957 -1.53493 -3.01315 -8.82117 -0.630686 6.92531 -15.7707 17.4696 -30.1028 -8.55032 84.1258 2.12085 46.903 -1.70576 -7.76172 -11.3633 1.27052 1.01264 -5.68311 -2.95288 
-8.28734 92.9984 -56.2852 61.9692 -32.9381 -19.5421 -70.1915 0 88.8779 95.2976 70.2529 -8.89019 1.59853 17.8362 8.16363 -118.443 38.9705 147.947 172.366 84.5259 -121.47 0.836622 0.773557 -6.20916 -139.639 3.98882 -65.2006 -69.7477 -34.9406 -77.308 0.420957 0.000574898 0.358661 0.149418 1.39013 15.6734 -153.761 21.1416 71.5197 -57.7627 26.7969 73.8411 0.58676 0.000330503 0.0646655 -51.1664 11.3739 102.5 -1.7137 36.9444 -0.936445 -3.04661 -8.95377 -0.64369 6.79985 -15.5447 16.4546 -30.1046 -8.62567 84.2367 2.15976 47.1046 -1.60731 -7.87903 -11.5512 1.27601 1.07976 -5.34894 -3.80829 
-8.30703 92.9919 -56.2078 61.9954 -32.9007 -19.6038 -70.1915 0 88.8779 94.722 70.3068 -8.26998 1.76999 17.9616 7.85698 -118.681 38.9199 148.031 171.944 84.4267 -122.291 0.825912 0.618615 -6.06489 -139.318 4.37815 -65.1597 -69.5809 -34.4001 -77.3636 0.420957 0.000574898 0.358661 0.13475 1.46972 16.2729 -154.071 21.009 71.9481 -58.4582 26.772 74.2602 0.58676 0.000330503 0.0646655 -51.3551 11.1656 102.307 -1.61767 36.6349 -0.298905 -3.53512 -9.47955 -0.676217 6.34767 -14.8254 15.5708 -30.0113 -8.52186 84.4561 2.16453 47.2818 -1.72163 -7.48216 -11.7118 1.26603 1.18381 -5.18705 -4.81298 
-8.3715 92.9832 -56.1586 62.022 -32.6701 -19.6567 -70.1915 0 88.8779 93.6012 70.2776 -7.30678 2.09064 17.9564 7.61941 -119.751 39.2975 148.338 174.145 84.7174 -127.355 0.838758 0.303572 -6.13595 -139.219 4.65954 -65.1827 -69.3399 -33.7575 -77.4084 0.420957 0.000574898 0.358661 0.124571 1.54393 16.6001 -154.303 20.3986 72.1701 -57.9242 26.374 74.1588 0.58676 0.000330503 0.0646655 -51.2993 10.9275 102.056 -1.61535 36.4576 -0.371058 -3.18901 -9.21425 -0.663861 6.4338 -14.9772 15.9444 -30.0034 -8.73601 84.3275 2.10625 47.2167 -2.03136 -8.23153 -11.7584 1.28708 1.13264 -5.48067 -4.15611 
-8.4385 93.0149 -56.1972 61.9156 -32.3612 -19.7969 -70.1915 0 88.8779 92.2575 70.3199 -6.16943 2.20357 17.9857 7.54267 -120.783 40.0609 149.171 168.819 84.9273 -125.935 0.898889 0.0163992 -6.74709 -138.871 5.18566 -65.7552 -69.5942 -33.1523 -77.7443 0.420957 0.000574898 0.358661 0.0995426 1.81903 17.022 -154.554 19.6864 72.2943 -58.1053 25.704 74.6125 0.58676 0.000330503 0.0646655 -50.9591 10.589 101.586 -1.60229 36.4976 -0.234731 -3.35401 -9.22748 -0.65823 6.2171 -14.6571 15.9247 -29.7968 -9.23403 83.8831 2.1334 47.214 -1.84431 -8.6033 -11.7319 1.29722 1.07266 -5.28127 -3.80287 
-8.60793 93.0523 -56.3411 61.8286 -32.0315 -19.8555 -70.1915 0 88.8779 93.0513 70.4111 -6.9834 1.61292 18.1505 7.39684 -120.999 40.986 149.013 156.991 85.3675 -117.76 0.965654 -0.598559 -7.43881 -138.549 5.54502 -66.1612 -69.7111 -31.7529 -78.2374 0.420957 0.000574898 0.358661 0.0628763 2.01887 18.0918 -153.787 19.0668 71.9896 -58.2848 24.6507 75.2663 0.58676 0.000330503 0.0646655 -50.4976 10.2196 100.664 -1.60383 36.7392 -0.116893 -4.42706 -9.64569 -0.654238 5.95953 -14.2047 15.0048 -29.5786 -9.6955 83.3799 2.19275 47.0781 -1.35805 -8.70545 -11.532 1.29985 1.18587 -5.18473 -4.83907 
-8.78334 93.122 -56.6521 62.0114 -31.4306 -19.6902 -70.1915 0 88.8779 93.6147 70.6783 -7.1431 1.97184 18.6451 6.7037 -121.312 42.2287 147.894 137.618 85.7796 -100.682 1.11472 -2.03651 -9.36076 -138.176 6.85425 -67.4321 -68.2099 -29.8586 -77.9934 0.420957 0.000574898 0.358661 -0.0127 2.40719 19.9206 -152.925 18.9527 71.9411 -58.8992 23.8439 76.0169 0.58676 0.000330503 0.0646655 -49.9304 9.97452 99.7109 -1.78396 37.2751 -1.33492 -4.45622 -10.0226 -0.699957 5.59121 -13.573 14.1726 -29.6054 -10.2531 82.983 2.09099 46.6536 -1.74242 -9.18751 -11.2801 1.31343 1.08291 -5.35577 -3.82461 
-8.98234 93.2869 -57.0336 62.3682 -30.4088 -19.1647 -70.1915 0 88.8779 92.8975 70.9905 -6.27073 2.76392 19.0394 6.37778 -121.516 43.17 146.012 120.243 86.2004 -84.4512 1.15431 -1.62296 -9.84192 -137.584 11.2549 -69.7863 -66.1953 -28.1634 -77.4899 0.420957 0.000574898 0.358661 -0.0587696 2.43023 21.5972 -153.017 17.9316 72.9665 -59.1925 23.9467 76.1164 0.58676 0.000330503 0.0646655 -49.3559 10.3111 98.8268 -2.30322 38.0196 -5.37805 -4.80023 -10.1525 -0.701581 5.6866 -13.6462 13.3361 -29.9353 -10.7782 82.6587 1.95527 45.9234 -2.18372 -8.82607 -10.7839 1.30311 1.03118 -5.29631 -3.42521 
-9.10736 93.5687 -57.5063 62.9877 -29.0994 -18.1884 -70.1915 0 88.8779 92.2669 71.2241 -5.53691 3.26773 19.2382 6.4817 -121.613 43.9395 144.171 103.259 86.4752 -68.2391 1.24355 -2.58215 -11.3618 -135.072 15.1119 -73.3707 -67.3299 -27.3119 -78.4051 0.420957 0.000574898 0.358661 -0.166836 3.17982 22.5325 -152.616 16.1054 73.739 -57.4045 24.398 74.924 0.58676 0.000330503 0.0646655 -48.8163 10.8529 96.7922 -3.0092 39.0432 -11.6128 -4.86138 -10.4963 -0.74184 5.75878 -13.6997 12.767 -30.8618 -11.4976 81.6735 1.83546 44.6292 -2.18691 -9.1693 -9.8088 1.31553 1.14883 -6.02231 -3.89489 
